<?xml version="1.0" encoding="iso-8859-1"?>
<!-- Generator: Adobe Illustrator 19.0.0, SVG Export Plug-In . SVG Version: 6.00 Build 0)  -->
<svg version="1.1" id="Layer_1" xmlns="http://www.w3.org/2000/svg" xmlns:xlink="http://www.w3.org/1999/xlink" x="0px" y="0px"
	 viewBox="0 0 511.999 511.999" style="enable-background:new 0 0 511.999 511.999;" xml:space="preserve" fill="#9400D3">
<g>
	<g>
		<g>
			<path d="M138.975,361.384c-1.716-2.768-4.604-4.6-7.841-4.974c-3.233-0.374-6.466,0.75-8.768,3.053l-43.818,43.817
				c-4.165,4.166-4.165,10.92,0,15.086l47.844,47.845c2,2.001,4.713,3.124,7.542,3.124h9.911c2.829,0,5.543-1.124,7.544-3.124
				l26.487-26.488c3.502-3.502,4.134-8.955,1.523-13.165L138.975,361.384z M139.427,448.001h-1.074l-37.176-37.177l26.76-26.758
				l28.874,46.551L139.427,448.001z"/>
			<path d="M493.787,63.463L433.448,3.125c-2-2-4.713-3.125-7.542-3.125c-2.829,0-5.543,1.124-7.544,3.125l-265.475,265.48
				c-0.002,0.001-0.004,0.002-0.005,0.004L18.211,403.279c-2,2-3.125,4.714-3.125,7.543c0,2.829,1.124,5.543,3.125,7.543
				l90.509,90.509c2.001,2,4.715,3.125,7.544,3.125h45.256c2.829,0,5.542-1.124,7.542-3.125l70.795-70.794
				c0.081-0.082,0.155-0.171,0.234-0.255c0.075-0.079,0.148-0.158,0.221-0.24c0.25-0.285,0.49-0.576,0.704-0.88
				c0.004-0.004,0.008-0.009,0.012-0.014l0.005-0.006c0.008-0.011,0.015-0.021,0.022-0.032l16.486-23.343
				c1.631-2.312,2.28-5.176,1.8-7.964l-5.243-30.453l30.459-5.243c2.787-0.48,5.271-2.048,6.905-4.359
				c1.631-2.311,2.28-5.176,1.799-7.963l-5.244-30.457l30.457-5.243c2.788-0.48,5.271-2.048,6.904-4.359
				c1.632-2.312,2.281-5.176,1.8-7.964l-5.242-30.455l30.457-5.245c5.806-1,9.703-6.517,8.703-12.323l-5.242-30.455l30.457-5.244
				c5.805-1,9.703-6.516,8.702-12.322l-5.242-30.457l30.457-5.243c5.804-1,9.702-6.517,8.703-12.322l-5.243-30.457l30.458-5.243
				c5.804-1,9.702-6.516,8.703-12.322l-5.242-30.455l30.456-5.243c3.929-0.676,7.151-3.486,8.358-7.285
				C497.616,70.435,496.605,66.281,493.787,63.463z M157.1,490.665h-36.419l-79.843-79.842l117.613-117.612l14.375,23.176
				l-0.329,36.811v0.002c-0.019,2.061,0.56,4.083,1.667,5.821l39.259,61.703l5.294,8.322L157.1,490.665z M443.466,67.545
				c-5.805,1-9.703,6.516-8.703,12.322l5.242,30.457l-30.458,5.242c-2.788,0.48-5.271,2.047-6.904,4.359
				c-1.632,2.311-2.28,5.176-1.801,7.963l5.244,30.459l-30.456,5.242c-2.789,0.48-5.271,2.047-6.904,4.359
				c-1.632,2.311-2.28,5.176-1.801,7.963l5.242,30.457l-30.458,5.244c-5.805,1-9.702,6.517-8.703,12.322l5.243,30.457l-30.457,5.243
				c-2.788,0.48-5.272,2.048-6.905,4.359c-1.631,2.312-2.28,5.176-1.8,7.964l5.243,30.455l-30.457,5.243
				c-5.806,1-9.703,6.517-8.703,12.322l5.242,30.457l-30.457,5.243c-2.789,0.48-5.271,2.048-6.905,4.359
				c-1.631,2.312-2.28,5.176-1.799,7.964l6.302,36.613l-4.788,6.779l-38.914-61.162l0.327-36.744
				c0.019-2.019-0.537-4.001-1.601-5.718l-18.64-30.053l251.963-251.96l38.232,38.233L443.466,67.545z"/>
			<path d="M270.724,211.105l-0.553,0.554c-4.166,4.166-4.166,10.92,0,15.087c2.082,2.083,4.813,3.125,7.542,3.125
				c2.73,0,5.461-1.041,7.544-3.125l0.553-0.554c4.166-4.166,4.166-10.92,0-15.087C281.645,206.939,274.89,206.939,270.724,211.105z
				"/>
			<path d="M248.331,233.5l-41.364,41.362c-4.166,4.166-4.167,10.92,0,15.086c2.082,2.083,4.813,3.124,7.542,3.124
				c2.73,0,5.461-1.042,7.543-3.124l41.364-41.362c4.166-4.166,4.167-10.92,0-15.086C259.252,229.335,252.497,229.336,248.331,233.5
				z"/>
		</g>
	</g>
</g>
<g>
</g>
<g>
</g>
<g>
</g>
<g>
</g>
<g>
</g>
<g>
</g>
<g>
</g>
<g>
</g>
<g>
</g>
<g>
</g>
<g>
</g>
<g>
</g>
<g>
</g>
<g>
</g>
<g>
</g>
</svg>
