<svg id="Capa_1" enable-background="new 0 0 511.999 511.999" height="512" viewBox="0 0 511.999 511.999" width="512" xmlns="http://www.w3.org/2000/svg" fill="#9400D3">
    <g>
        <g>
            <g>
                <path d="m457.897 491.198-17.379-90.096c2.655-1.155 4.513-3.798 4.513-6.878v-13.806c0-28.12-21.567-51.297-49.03-53.856v-8.837c0-8.154-5.324-15.078-12.675-17.507v-274.342c0-14.268-11.608-25.876-25.876-25.876-14.269 0-25.876 11.608-25.876 25.876v141.965c-19.983-28.218-52.752-45.817-88.568-45.817-59.816 0-108.48 48.664-108.48 108.48v13.04c-9.231.472-16.602 8.108-16.602 17.455v16.644c-5.234 4.738-8.528 11.583-8.528 19.183v90.552c-.359.003-27.286-.007-27.286-.007-15.62 0-28.327 12.707-28.327 28.326v78.799c0 9.649 7.851 17.5 17.5 17.5l369.44.004c5.24 0 10.157-2.317 13.492-6.356 3.332-4.04 4.675-9.305 3.682-14.446zm-111.324-400.877h21.752v208.959h-21.752zm10.877-75.321c5.997 0 10.876 4.879 10.876 10.876v49.445h-21.752v-49.445c-.001-5.997 4.879-10.876 10.876-10.876zm-26.031 185.062.154 43.438h-182.048v-12.994c0-51.545 41.935-93.48 93.48-93.48 39.904-.002 75.434 25.331 88.414 63.036zm-198.496 60.937c0-1.379 1.122-2.5 2.5-2.5h196.15v21.839h-48.759c-4.142 0-7.5 3.357-7.5 7.5s3.358 7.5 7.5 7.5h48.759v4.88c-7.351 2.429-12.675 9.353-12.675 17.507v8.837c-27.463 2.56-49.03 25.736-49.03 53.856v13.806c0 3.079 1.856 5.721 4.509 6.876l-17.379 90.096c-.375 1.941-.415 3.899-.142 5.803h-40.298c.118-.82.2-1.652.2-2.504v-78.799c0-15.619-12.708-28.326-28.327-28.326 0 0-26.928.01-27.286.007v-8.788c0-4.143-3.358-7.5-7.5-7.5s-7.5 3.357-7.5 7.5v8.781h-21.752v-51.1h21.752v6.393c0 4.143 3.358 7.5 7.5 7.5s7.5-3.357 7.5-7.5v-45.838c0-.5-.018-.995-.046-1.487h85.786c4.142 0 7.5-3.357 7.5-7.5s-3.358-7.5-7.5-7.5h-91.689c-4.75-5.732-11.92-9.39-19.928-9.39-.792 0-1.574.042-2.348.111v-10.06zm13.224 60.272h-21.752v-24.445c0-5.998 4.879-10.877 10.876-10.877s10.876 4.879 10.876 10.877zm-36.493 81.099h51.234c7.348 0 13.326 5.979 13.326 13.326v53.754h-77.886v-53.754c0-7.347 5.978-13.326 13.326-13.326zm76.22 0h2.558c7.348 0 13.327 5.979 13.327 13.326v53.754h-12.545v-53.754c0-4.815-1.211-9.351-3.34-13.326zm-103.765 0h2.558c-2.128 3.975-3.339 8.511-3.339 13.326v53.754h-12.546v-53.754c0-7.347 5.979-13.326 13.327-13.326zm-13.327 92.125v-10.045h132.977v10.045c0 1.379-1.122 2.5-2.5 2.5h-127.977c-1.378 0-2.5-1.121-2.5-2.5zm373.863 1.599c-.279.338-.899.905-1.923.905h-23.798l-7.655-71.79c-.438-4.119-4.135-7.086-8.253-6.663-4.119.439-7.102 4.135-6.662 8.253l7.485 70.2h-18.787l-1.674-45.036c-.154-4.14-3.632-7.367-7.773-7.217-4.14.154-7.37 3.635-7.216 7.773l1.653 44.479h-21.185l.82-22.063c.154-4.139-3.077-7.619-7.216-7.773-.095-.003-.189-.005-.283-.005-4.014 0-7.34 3.177-7.49 7.222l-.841 22.619h-18.787l6.044-56.682c.439-4.118-2.543-7.813-6.662-8.253-4.115-.434-7.814 2.544-8.253 6.663l-6.213 58.271h-23.803c-1.02 0-1.642-.568-1.921-.908-.279-.337-.717-1.053-.524-2.051l17.807-92.316h74.483c4.142 0 7.5-3.357 7.5-7.5s-3.358-7.5-7.5-7.5h-79.148v-6.306c0-21.555 17.536-39.091 39.091-39.091h2.439c4.142 0 7.5-3.357 7.5-7.5v-16.103c0-1.899 1.545-3.444 3.444-3.444h40.214c1.899 0 3.444 1.545 3.444 3.444v16.103c0 4.143 3.358 7.5 7.5 7.5h2.439c21.555 0 39.09 17.536 39.09 39.091v6.306h-30.087c-4.142 0-7.5 3.357-7.5 7.5s3.358 7.5 7.5 7.5h25.418l17.808 92.317c.192 1.002-.246 1.718-.525 2.055z"/>
                <path d="m364.944 359.812h-14.399c-4.142 0-7.5 3.357-7.5 7.5s3.358 7.5 7.5 7.5h14.399c4.142 0 7.5-3.357 7.5-7.5s-3.358-7.5-7.5-7.5z"/>
            </g>
        </g>
    </g>
</svg>