<svg height="496pt" viewBox="0 0 496 496" width="496pt" xmlns="http://www.w3.org/2000/svg" fill="#9400D3">
    <path d="m496 352v-16h-24v-32c0-2.121094-.839844-4.160156-2.34375-5.65625l-24-24c-3.128906-3.128906-8.183594-3.128906-11.3125 0l-24 24c-1.503906 1.496094-2.34375 3.535156-2.34375 5.65625v32h-32v-32c0-2.121094-.839844-4.160156-2.34375-5.65625l-5.65625-5.65625v-65.375l21.425781-21.425781c17.679688-5.183594 31.230469-20.109375 34.039063-38.679688 2.808594.527344 5.664062.792969 8.535156.792969 26.472656 0 48-21.527344 48-48 0-21.335938-14.0625-39.855469-34.121094-45.878906-6.246094-20.800782-25.957031-35.234375-48.253906-34.058594-6.953125-23.308594-28.761719-40.0625-53.625-40.0625-22.089844 0-41.679688 12.734375-50.769531 32.335938-1.78125-.222657-3.511719-.335938-5.230469-.335938-18.585938 0-34.710938 10.625-42.6875 26.113281-9.359375-11.730469-23.863281-18.960937-39.6875-18.050781-6.953125-23.308594-28.761719-40.0625-53.625-40.0625-22.089844 0-41.679688 12.734375-50.769531 32.335938-1.78125-.222657-3.511719-.335938-5.230469-.335938-24.65625 0-45.03125 18.6875-47.703125 42.648438-19.039063 6.589843-32.296875 24.75-32.296875 45.351562 0 26.6875 22.105469 48.304688 48.664062 48 3.625 21.488281 21.617188 37.984375 43.695313 39.671875l19.640625 19.640625v65.375l-5.65625 5.65625c-1.503906 1.496094-2.34375 3.535156-2.34375 5.65625v32h-32v-32c0-2.121094-.839844-4.160156-2.34375-5.65625l-24-24c-3.128906-3.128906-8.183594-3.128906-11.3125 0l-24 24c-1.503906 1.496094-2.34375 3.535156-2.34375 5.65625v32h-24v16h24v16h-24v16h24v32h-24v16h24v16h-24v16h24v24c0 4.414062 3.585938 8 8 8h48c4.414062 0 8-3.585938 8-8v-24h32v24c0 4.414062 3.585938 8 8 8h48c4.414062 0 8-3.585938 8-8v-24h32v24c0 4.414062 3.585938 8 8 8h48c4.414062 0 8-3.585938 8-8v-24h32v24c0 4.414062 3.585938 8 8 8h48c4.414062 0 8-3.585938 8-8v-24h32v24c0 4.414062 3.585938 8 8 8h48c4.414062 0 8-3.585938 8-8v-24h24v-16h-24v-16h24v-16h-24v-32h24v-16h-24v-16zm-424 128h-32v-172.6875l16-16 16 16zm336-128v16h-32v-16zm-32 32h32v32h-32zm-26.34375-109.65625c-3.128906-3.128906-8.183594-3.128906-11.3125 0l-2.34375 2.34375v-52.6875c0-2.121094-.839844-4.160156-2.34375-5.65625l-13.265625-13.265625c7.546875-2.742187 14.289063-7.316406 19.609375-13.445313 6.734375 7.757813 15.726562 13.101563 25.777344 15.269532l-11.433594 11.433594c-1.503906 1.503906-2.34375 3.542968-2.34375 5.664062v52.6875zm-93.65625-194.34375c0-17.648438 14.351562-32 32-32 2.449219 0 5.046875.390625 8.183594 1.222656 4.160156 1.097656 8.390625-1.238281 9.679687-5.3125 5.296875-16.695312 20.625-27.910156 38.136719-27.910156 19.664062 0 36.648438 14.671875 39.511719 34.136719.320312 2.191406 1.535156 4.152343 3.359375 5.414062 1.824218 1.257813 4.082031 1.722657 6.25 1.242188 2.4375-.535157 4.6875-.792969 6.878906-.792969 15.398438 0 28.609375 11.007812 31.398438 26.183594.601562 3.265625 3.152343 5.816406 6.417968 6.417968 15.175782 2.789063 26.183594 16 26.183594 31.398438 0 17.648438-14.351562 32-32 32-4.449219 0-8.847656-.96875-13.078125-2.863281-2.59375-1.167969-5.601563-.871094-7.921875.773437-2.3125 1.648438-3.585938 4.394532-3.335938 7.226563l.199219 1.6875c.058594.382812.136719.777343.136719 1.175781 0 17.648438-14.351562 32-32 32-12.359375 0-23.390625-7.007812-28.785156-18.304688-1.328125-2.785156-4.136719-4.550781-7.214844-4.550781s-5.886719 1.765625-7.214844 4.550781c-5.394531 11.296876-16.425781 18.304688-28.785156 18.304688-17.648438 0-32-14.351562-32.046875-31.238281.054687-.355469.125-1.113281.125-1.472657.035156-2.425781-1.03125-4.730468-2.902344-6.28125-1.863281-1.542968-4.351562-2.160156-6.710937-1.664062-2.105469.441406-4.28125.65625-6.464844.65625-17.648438 0-32-14.351562-32-32 0-15.175781 10.792969-28.367188 25.664062-31.359375 3.824219-.769531 6.527344-4.175781 6.414063-8.074219-.015625-.488281-.070313-.847656-.078125-.566406zm-176.046875 80.761719c.054687-.355469.125-1.113281.125-1.472657.035156-2.425781-1.03125-4.730468-2.902344-6.28125-1.863281-1.542968-4.335937-2.160156-6.710937-1.664062-2.105469.441406-4.28125.65625-6.464844.65625-17.648438 0-32-14.351562-32-32 0-15.175781 10.792969-28.367188 25.664062-31.359375 3.824219-.769531 6.527344-4.175781 6.414063-8.074219-.015625-.488281-.0625-.847656-.078125-.566406 0-17.648438 14.351562-32 32-32 2.449219 0 5.046875.390625 8.183594 1.222656 4.144531 1.097656 8.390625-1.238281 9.679687-5.3125 5.296875-16.695312 20.625-27.910156 38.136719-27.910156 19.664062 0 36.648438 14.671875 39.511719 34.136719.320312 2.191406 1.535156 4.152343 3.359375 5.414062 1.824218 1.257813 4.089844 1.722657 6.25 1.242188 2.4375-.535157 4.6875-.792969 6.878906-.792969 13.160156 0 24.65625 8.070312 29.480469 19.871094-17.480469 7.367187-29.480469 24.585937-29.480469 44.128906 0 11.414062 4.0625 21.886719 10.769531 30.128906-2.144531 1.664063-3.34375 4.285156-3.097656 7.007813l.199219 1.6875c.050781.382812.128906.777343.128906 1.175781 0 17.648438-14.351562 32-32 32-12.359375 0-23.390625-7.007812-28.785156-18.304688-1.328125-2.785156-4.136719-4.550781-7.214844-4.550781s-5.886719 1.765625-7.214844 4.550781c-5.394531 11.296876-16.425781 18.304688-28.785156 18.304688-17.648438 0-32-14.351562-32.046875-31.238281zm61.703125 57.582031-13.265625-13.265625c7.546875-2.742187 14.289063-7.316406 19.609375-13.445313 6.734375 7.757813 15.726562 13.101563 25.777344 15.269532l-11.433594 11.433594c-1.503906 1.503906-2.34375 3.542968-2.34375 5.664062v52.6875l-2.34375-2.34375c-3.128906-3.128906-8.183594-3.128906-11.3125 0l-2.34375 2.34375v-52.6875c0-2.121094-.839844-4.160156-2.34375-5.65625zm42.34375 165.65625h32v32h-32zm0-16v-16h32v16zm-64-16v16h-32v-16zm0 32v32h-32v-32zm-32 64v-16h32v16zm80 32h-32v-172.6875l16-16 16 16zm16-32v-16h32v16zm80 32h-32v-172.6875l16-16 16 16zm-10.34375-205.65625c-3.128906-3.128906-8.183594-3.128906-11.3125 0l-24 24c-1.503906 1.496094-2.34375 3.535156-2.34375 5.65625v32h-32v-32c0-2.121094-.839844-4.160156-2.34375-5.65625l-5.65625-5.65625v-65.375l21.425781-21.425781c17.679688-5.183594 31.230469-20.109375 34.039063-38.679688 5.367187 1 10.910156.898438 16.304687.015625 2.894531.511719 5.863281.800782 8.902344.769532 3.625 21.488281 21.617187 37.984374 43.695313 39.671874l19.632812 19.648438v65.375l-5.65625 5.65625c-1.503906 1.496094-2.34375 3.535156-2.34375 5.65625v32h-32v-32c0-2.121094-.839844-4.160156-2.34375-5.65625zm26.34375 109.65625h32v32h-32zm0-16v-16h32v16zm0 80v-16h32v16zm80 32h-32v-172.6875l16-16 16 16zm16-32v-16h32v16zm80 32h-32v-172.6875l16-16 16 16zm0 0"/>
    <path d="m344 48c4.40625 0 8 3.59375 8 8h16c0-13.230469-10.769531-24-24-24s-24 10.769531-24 24h16c0-4.40625 3.59375-8 8-8zm0 0"/>
</svg>