<?xml version="1.0"?>
<svg xmlns="http://www.w3.org/2000/svg" viewBox="0 0 512 512" width="50" height="50" fill="#9400D3">
    <g id="Icons_copy" data-name="Icons copy">
        <path d="M376,96V64a48.053,48.053,0,0,0-48-48H72A48.053,48.053,0,0,0,24,64V440a32,32,0,0,0,64,0V296a16,16,0,0,1,32,0v56a32,32,0,0,0,64,0V208a16,16,0,0,1,27.928-10.665l11.922-10.67A32,32,0,0,0,168,208V352a16,16,0,0,1-32,0V296a32,32,0,0,0-64,0V440a16,16,0,0,1-32,0V64A32.036,32.036,0,0,1,72,32H328a32.036,32.036,0,0,1,32,32V96Z"/>
        <path d="M492.009,182.9,312,78.688A8,8,0,0,0,301.069,81.6L220.9,220.068l-15.1,26.087a31.8,31.8,0,0,0,4.378,37.952l27.844,29.62a23.96,23.96,0,0,1,2.689,29.438l-60.219,93.456a38.552,38.552,0,0,0,32.293,59.4,38.785,38.785,0,0,0,10.886-1.572,38.177,38.177,0,0,0,23.405-19.276l51.066-98.756a23.951,23.951,0,0,1,26.868-12.326l39.55,9.4a31.8,31.8,0,0,0,35.092-15.1l15.1-26.072.009-.014,80.168-138.468A8,8,0,0,0,492.009,182.9ZM246.774,207.315l166.16,96.2-8.017,13.847-166.16-96.2ZM385.805,350.374a15.894,15.894,0,0,1-17.546,7.549l-39.551-9.4a39.935,39.935,0,0,0-44.78,20.543l-51.066,98.756a22.513,22.513,0,1,1-38.922-22.534l60.219-93.456a39.933,39.933,0,0,0-4.479-49.063l-27.845-29.62a15.9,15.9,0,0,1-2.19-18.975l11.1-19.163,166.16,96.2Zm35.146-60.7-166.161-96.2,56.118-96.927,13.846,8.016-36.075,62.31,13.847,8.018,36.076-62.31,13.846,8.016-16.033,27.693,13.846,8.018L366.3,128.609l13.846,8.016-16.034,27.694,13.848,8.018,16.034-27.694,27.692,16.033-32.067,55.386,13.848,8.018,32.067-55.387,13.846,8.017-20.042,34.616,13.846,8.018,20.042-34.618,13.847,8.017Z"/>
        <rect x="209.618" y="441.27" width="16.001" height="16" transform="translate(-280.226 412.5) rotate(-59.931)"/>
        <path d="M56,75.515V96H72V75.515A11.527,11.527,0,0,1,83.515,64H216V48H83.515A27.546,27.546,0,0,0,56,75.515Z"/>
        <rect x="232" y="48" width="16" height="16"/>
    </g>
</svg>
