<svg id="icons" enable-background="new 0 0 64 64" height="512" viewBox="0 0 64 64" width="512" xmlns="http://www.w3.org/2000/svg" fill="#9400D3">
    <path d="m63 62h-1.628l-22.709-19.608c.863-1.303 1.337-2.836 1.337-4.415 0-.004-.002-.006-.002-.01v-5.961c.553 0 1-.447 1-1s-.447-1-1-1h-5.514v-20.551c2.064-.945 3.506-3.022 3.514-5.436 0-.007.004-.013.004-.02v-2.999c0-.553-.447-1-1-1h-10.004c-.553 0-1 .447-1 1v3c0 .007.004.013.004.02.008 2.401 1.436 4.47 3.483 5.421v20.565h-5.483c-.553 0-1 .447-1 1s.447 1 1 1v5.961c0 .004-.002.006-.002.01 0 1.596.483 3.143 1.365 4.455l-22.736 19.568h-1.629c-.553 0-1 .447-1 1s.447 1 1 1h62c.553 0 1-.447 1-1s-.447-1-1-1zm-35.002-59v-1h8.004v1zm.145 2h7.715c-.447 1.721-2 3-3.857 3s-3.411-1.279-3.858-3zm3.857 5c.163 0 .324-.012.484-.024v2.024h-.999v-2.026c.17.014.341.026.515.026zm-.515 4h.999v16.006h-.999zm-5.483 23.998v-5.992h11.996v5.992c-.004 1.092-.308 2.151-.864 3.073l-4.434-3.828c-.374-.324-.93-.323-1.306-.001l-4.5 3.873c-.574-.933-.888-2.01-.892-3.117zm1.378 5.339c.001-.002.003-.002.004-.003s.001-.002.003-.003l4.659-4.011 4.606 3.978c.001.001.001.001.001.001h.001l21.659 18.701h-52.619z"/>
    <path d="m47.031 59h-.011c-.552 0-.994.447-.994 1s.452 1 1.005 1c.552 0 1-.447 1-1s-.448-1-1-1z"/>
    <path d="m49.033 56.998h-.011c-.552 0-.994.447-.994 1s.452 1 1.005 1c.552 0 1-.447 1-1s-.448-1-1-1z"/>
    <path d="m51.035 59h-.011c-.552 0-.994.447-.994 1s.452 1 1.005 1c.552 0 1-.447 1-1s-.448-1-1-1z"/>
</svg>