<svg height="512pt" viewBox="0 0 512 512.09091" width="512pt" xmlns="http://www.w3.org/2000/svg" fill="#9400D3">
    <path d="m415.988281 96.144531c5.515625 5.347657 12.960938 8.238281 20.640625 8.019531 13.980469-.703124 27.140625-6.828124 36.683594-17.070312 14.371094-17.449219 26.554688-36.59375 36.28125-57 4.300781-7.976562 3.054688-17.804688-3.09375-24.457031-6.652344-6.152344-16.476562-7.398438-24.453125-3.101563-20.410156 9.730469-39.554687 21.917969-57.011719 36.289063-18.605468 18.609375-22.582031 43.785156-9.046875 57.320312zm21.117188-45.25c16.015625-12.9375 33.488281-23.960937 52.058593-32.851562 1.082032-.535157 2.265626-.835938 3.472657-.882813.644531-.054687 1.289062.140625 1.792969.542969.691406.683594.875 2.625-.339844 5.265625-8.890625 18.566406-19.910156 36.039062-32.84375 52.054688-12.449219 12.457031-27.492188 14.753906-33.195313 9.050781-5.703125-5.699219-3.386719-20.738281 9.054688-33.179688zm0 0"/>
    <path d="m238.980469 170.757812c9.417969-.011718 17.054687-7.644531 17.066406-17.066406v-68.265625c-.011719-9.421875-7.648437-17.058593-17.066406-17.066406h-170.667969c-9.421875.007813-17.054688 7.644531-17.066406 17.066406v68.265625c.011718 9.421875 7.644531 17.054688 17.066406 17.066406zm-90.609375-85.332031-34.132813 68.265625h-23.585937l34.136718-68.265625zm90.617187 68.265625h-105.667969l34.132813-68.265625h71.527344zm-170.675781-68.265625h37.390625l-34.132813 68.265625h-3.257812zm0 0"/>
    <path d="m162.179688 315.824219c0 4.710937-3.820313 8.535156-8.535157 8.535156-4.710937 0-8.53125-3.824219-8.53125-8.535156 0-4.710938 3.820313-8.535157 8.53125-8.535157 4.714844 0 8.535157 3.824219 8.535157 8.535157zm0 0"/>
    <path d="m286.089844 379.21875c0 4.710938-3.820313 8.53125-8.535156 8.53125-4.710938 0-8.53125-3.820312-8.53125-8.53125 0-4.714844 3.820312-8.535156 8.53125-8.535156 4.714843 0 8.535156 3.820312 8.535156 8.535156zm0 0"/>
    <path d="m313.410156 222.859375c2.441406-2.4375 3.171875-6.109375 1.851563-9.296875-1.320313-3.191406-4.433594-5.269531-7.886719-5.269531-3.449219 0-6.5625 2.078125-7.882812 5.269531-1.320313 3.1875-.589844 6.859375 1.851562 9.296875 3.332031 3.335937 8.734375 3.335937 12.066406 0zm0 0"/>
    <path d="m162.179688 281.691406c0 4.710938-3.820313 8.53125-8.535157 8.53125-4.710937 0-8.53125-3.820312-8.53125-8.53125 0-4.714844 3.820313-8.535156 8.53125-8.535156 4.714844 0 8.535157 3.820312 8.535157 8.535156zm0 0"/>
    <path d="m110.980469 386.546875v99.945313c.015625 14.128906 11.464843 25.582031 25.597656 25.597656h34.132813c14.132812-.015625 25.585937-11.46875 25.601562-25.597656v-99.964844c12.832031-3.671875 25.117188-9.050782 36.523438-15.988282l-.015626.144532v17.066406c-.015624 4.519531 1.777344 8.855469 4.976563 12.050781l104.007813 104.785157c4.800781 4.804687 11.3125 7.5 18.105468 7.5 6.789063 0 13.304688-2.695313 18.105469-7.5l24.132813-24.132813c9.964843-9.964844 10.003906-26.109375.085937-36.121094l-28.140625-28.90625 6.050781-6.046875c6.636719-6.675781 6.632813-17.457031-.007812-24.125l-36.207031-36.203125c6.65625-6.667969 6.65625-17.472656 0-24.140625l-14.875-14.867187c-4.03125-4.042969-9.820313-5.796875-15.417969-4.667969l-23.175781 4.632812c-.285157.058594-.53125.222657-.816407.292969 6.972657-13.3125 11.976563-27.566406 14.847657-42.320312l117.527343-117.527344c9.984375-10.003906 9.984375-26.199219 0-36.203125l-24.132812-24.132812c-10.128907-9.671876-26.070313-9.671876-36.199219 0l-54.441406 54.441406v-59.132813c-.054688-47.109375-38.226563-85.28125-85.332032-85.3359372h-136.535156c-47.105468.0546872-85.2812498 38.2265622-85.332031 85.3359372v153.597657c0 68.390624 45.230469 128.539062 110.933594 147.523437zm68.265625 99.945313c-.003906 4.710937-3.824219 8.527343-8.535156 8.53125h-34.132813c-4.710937-.003907-8.527344-3.820313-8.53125-8.53125v-213.335938c0-14.136719 11.460937-25.597656 25.597656-25.597656 14.140625 0 25.601563 11.460937 25.601563 25.597656zm122.101562-311.902344 36.199219 36.207031-49.449219 49.453125-13.578125-58.832031zm-31.988281 136.558594c-8.121094-10.144532-7.339844-24.761719 1.8125-33.984376l4.890625-4.890624c2.03125 2.058593 4.550781 3.566406 7.324219 4.378906.476562.136718.960937.109375 1.441406.203125-3.574219 12.082031-8.777344 23.617187-15.46875 34.292969zm-.023437-56.28125-10.230469 10.230468c-16.632813 16.675782-16.632813 43.664063 0 60.339844l5.945312 5.945312-12.066406 12.070313-5.945313-5.945313c-23.292968-23.34375-23.292968-61.132812 0-84.476562l17.773438-17.773438zm24.492187 71.871093 23.15625-4.632812 14.875 14.871093c-3.199219 3.203126-5 7.542969-5 12.070313s1.800781 8.867187 5 12.070313l36.210937 36.199218-6.050781 6.046875c-6.617187 6.636719-6.648437 17.367188-.074219 24.046875l28.132813 28.910156c3.324219 3.339844 3.324219 8.734376 0 12.070313l-24.132813 24.132813c-3.367187 3.214843-8.664062 3.222656-12.042968.023437l-104.015625-104.796875v-17.066406l8.980469-8.984375c.054687-.050781.125-.066407.179687-.117188.050781-.050781.066406-.125.117187-.175781l23.847657-23.847656c.050781-.046875.121093-.0625.167969-.113282.050781-.050781.066406-.121093.117187-.171874zm79.933594-224.558593c1.597656-1.601563 3.765625-2.496094 6.027343-2.496094 2.261719 0 4.429688.898437 6.03125 2.5l24.132813 24.132812c3.324219 3.335938 3.324219 8.734375 0 12.070313l-60.339844 60.34375-36.199219-36.207031zm-356.648438-16.753907c.042969-37.6875 30.582031-68.226562 68.265625-68.269531h136.535156c37.683594.042969 68.222657 30.582031 68.265626 68.269531v76.199219l-27.71875 27.71875c-4.191407 4.144531-5.921876 10.171875-4.574219 15.90625l2.398437 10.398438-25.316406 25.316406c-29.730469 29.808594-29.949219 77.984375-.496094 108.0625-2.804687 2.054687-5.664062 4.015625-8.589844 5.835937-9.242187 5.847657-19.175781 10.53125-29.570312 13.941407v-95.648438c0-23.5625-19.101562-42.664062-42.667969-42.664062-23.5625 0-42.664062 19.101562-42.664062 42.664062v95.566406c-56.003907-18.445312-93.851563-70.738281-93.867188-129.699218zm0 0"/>
</svg>