<svg xmlns="http://www.w3.org/2000/svg" viewBox="0 0 64 64" width="512" height="512" fill="#9400D3">
    <g id="well-gardening">
        <path d="M59.5,15H55V7a1,1,0,0,0-1-1H51V5a3,3,0,0,0-6,0V6H37a1,1,0,0,0-2,0H34a1,1,0,0,0-2,0H31a1,1,0,0,0-2,0H28a1,1,0,0,0-2,0H15V5A3,3,0,0,0,9,5V6H8.5a2.5,2.5,0,0,0,0,5H9V43H3a1,1,0,0,0-1,1v6a1,1,0,0,0,1,1H5V61a1,1,0,0,0,1,1H54a1,1,0,0,0,1-1V51h2a1,1,0,0,0,1-1V44a1,1,0,0,0-1-1H51V11h2v8a1,1,0,0,0,1,1h5.5a2.5,2.5,0,0,0,0-5ZM47,5a1,1,0,0,1,2,0V43H47ZM45,8V9H34V8ZM32,8V9H31V8Zm3.61,22-.47,6.08a1,1,0,0,1-.99.92h-8.3a1,1,0,0,1-.99-.92L24.39,30H26V28H24.23l-.15-2H35.92l-.15,2H28v2ZM23,24V23H37v1Zm2.22-3,.44-2.2a1,1,0,0,1,.98-.8h6.72a1,1,0,0,1,.98.8l.44,2.2ZM29,8V9H28V8ZM15,8H26V9H15Zm0,3h8a1,1,0,0,0,2,0h1a1,1,0,0,0,2,0h1v5H26.64a3,3,0,0,0-2.94,2.41L23.18,21H22a1,1,0,0,0-1,1v3a1,1,0,0,0,1,1h.07l.79,10.23A3.014,3.014,0,0,0,25.85,39h8.3a3.014,3.014,0,0,0,2.99-2.77L37.93,26H38a1,1,0,0,0,1-1V22a1,1,0,0,0-1-1H36.82l-.52-2.59A3,3,0,0,0,33.36,16H31V11h1a1,1,0,0,0,2,0H45V43H15ZM11,5a1,1,0,0,1,2,0V43H11ZM8.5,9a.5.5,0,0,1,0-1H9V9ZM9,60H7V58H9ZM7,56V54h7v2Zm34,4H31V58H41Zm-4-4V54H47v2Zm16,4H43V58H53Zm0-4H49V53a1,1,0,0,0-1-1H36a1,1,0,0,0-1,1v3H30a1,1,0,0,0-1,1v3H11V58h4a1,1,0,0,0,1-1V53a1,1,0,0,0-1-1H7V51H53Zm3-11v4H4V45ZM53,9H51V8h2Zm6.5,9H55V17h4.5a.5.5,0,0,1,0,1Z"/>
    </g>
</svg>
